<svg width="112" height="31" viewBox="0 0 112 31" fill="none" xmlns="http://www.w3.org/2000/svg">
<path d="M13.9074 31H3.90398L13.9074 15.746H23.9108L13.9074 31Z" fill="#737373"/>
<path d="M10.2474 0H20.4948L10.2474 15.7461H0L10.2474 0Z" fill="#737373"/>
<path d="M44.3182 13.2701C44.3182 14.2055 44.0946 15.0825 43.6473 15.901C43.2166 16.7196 42.5292 17.3794 41.5849 17.8805C40.6572 18.3817 39.4811 18.6322 38.0564 18.6322H35.1492V25.3475H31.6704V7.85777H38.0564C39.3983 7.85777 40.5413 8.09164 41.4855 8.55937C42.4298 9.02709 43.1338 9.67022 43.5976 10.4887C44.078 11.3073 44.3182 12.2344 44.3182 13.2701ZM37.9074 15.8008C38.8682 15.8008 39.5805 15.5836 40.0443 15.1493C40.5082 14.6983 40.7401 14.0719 40.7401 13.2701C40.7401 11.5662 39.7958 10.7143 37.9074 10.7143H35.1492V15.8008H37.9074Z" fill="#737373"/>
<path d="M49.273 13.6209C49.7202 12.8859 50.3 12.3095 51.0123 11.8919C51.7412 11.4743 52.5695 11.2655 53.4972 11.2655V14.9489H52.5778C51.4845 14.9489 50.6562 15.2078 50.093 15.7256C49.5463 16.2435 49.273 17.1455 49.273 18.4318V25.3475H45.7942V11.466H49.273V13.6209Z" fill="#737373"/>
<path d="M60.9591 25.573C59.6338 25.573 58.4411 25.2807 57.3809 24.696C56.3207 24.0946 55.4841 23.251 54.8712 22.1653C54.2749 21.0795 53.9767 19.8266 53.9767 18.4067C53.9767 16.9868 54.2831 15.734 54.8961 14.6482C55.5256 13.5624 56.3787 12.7272 57.4555 12.1425C58.5322 11.5411 59.7332 11.2405 61.0585 11.2405C62.3837 11.2405 63.5847 11.5411 64.6615 12.1425C65.7383 12.7272 66.5831 13.5624 67.196 14.6482C67.8255 15.734 68.1403 16.9868 68.1403 18.4067C68.1403 19.8266 67.8172 21.0795 67.1712 22.1653C66.5417 23.251 65.6803 24.0946 64.5869 24.696C63.5102 25.2807 62.3009 25.573 60.9591 25.573ZM60.9591 22.516C61.5886 22.516 62.1766 22.3657 62.7233 22.065C63.2865 21.7476 63.7338 21.2799 64.0651 20.6618C64.3964 20.0438 64.5621 19.2921 64.5621 18.4067C64.5621 17.0871 64.2142 16.0764 63.5185 15.3748C62.8393 14.6565 62.0027 14.2974 61.0088 14.2974C60.0148 14.2974 59.1783 14.6565 58.4991 15.3748C57.8365 16.0764 57.5051 17.0871 57.5051 18.4067C57.5051 19.7264 57.8282 20.7454 58.4742 21.4637C59.1369 22.1653 59.9651 22.516 60.9591 22.516Z" fill="#737373"/>
<path d="M73.1769 22.5662H76.9126V25.3475H69.6981V5.70288H73.1769V22.5662Z" fill="#737373"/>
<path d="M79.6113 9.81221C78.9983 9.81221 78.4848 9.62011 78.0707 9.2359C77.6731 8.83499 77.4743 8.34221 77.4743 7.75755C77.4743 7.17288 77.6731 6.68845 78.0707 6.30425C78.4848 5.90334 78.9983 5.70288 79.6113 5.70288C80.2242 5.70288 80.7295 5.90334 81.127 6.30425C81.5412 6.68845 81.7482 7.17288 81.7482 7.75755C81.7482 8.34221 81.5412 8.83499 81.127 9.2359C80.7295 9.62011 80.2242 9.81221 79.6113 9.81221ZM81.3258 11.466V25.3475H77.847V11.466H81.3258Z" fill="#737373"/>
<path d="M91.3974 11.2655C93.0374 11.2655 94.3626 11.7917 95.3731 12.8441C96.3836 13.8798 96.8889 15.3331 96.8889 17.204V25.3475H93.4101V17.6801C93.4101 16.5776 93.1367 15.734 92.5901 15.1493C92.0434 14.548 91.298 14.2473 90.3537 14.2473C89.3929 14.2473 88.6309 14.548 88.0677 15.1493C87.521 15.734 87.2477 16.5776 87.2477 17.6801V25.3475H83.7689V11.466H87.2477V13.1949C87.7115 12.5935 88.2996 12.1258 89.0119 11.7917C89.7408 11.4409 90.536 11.2655 91.3974 11.2655Z" fill="#737373"/>
<path d="M112 18.106C112 18.6072 111.967 19.0582 111.901 19.4591H101.837C101.92 20.4614 102.268 21.2465 102.881 21.8145C103.494 22.3824 104.247 22.6664 105.142 22.6664C106.434 22.6664 107.353 22.1068 107.9 20.9876H111.652C111.255 22.3239 110.493 23.4264 109.366 24.2951C108.24 25.147 106.856 25.573 105.216 25.573C103.891 25.573 102.698 25.2807 101.638 24.696C100.595 24.0946 99.7746 23.251 99.1782 22.1653C98.5984 21.0795 98.3085 19.8266 98.3085 18.4067C98.3085 16.9701 98.5984 15.7089 99.1782 14.6231C99.758 13.5373 100.57 12.7021 101.613 12.1174C102.657 11.5328 103.858 11.2405 105.216 11.2405C106.525 11.2405 107.693 11.5244 108.72 12.0924C109.764 12.6603 110.567 13.4705 111.13 14.5229C111.71 15.5586 112 16.753 112 18.106ZM108.397 17.1038C108.38 16.2017 108.057 15.4834 107.428 14.9489C106.798 14.3976 106.028 14.122 105.117 14.122C104.256 14.122 103.527 14.3893 102.93 14.9238C102.351 15.4417 101.994 16.1683 101.862 17.1038H108.397Z" fill="#737373"/>
</svg>
