<svg width="900" height="326" viewBox="0 0 900 326" fill="none" xmlns="http://www.w3.org/2000/svg">
<ellipse cx="456.5" cy="316" rx="443.5" ry="9.5" fill="#3C3C3C"/>
<path d="M58 252C46 256.8 35.6667 268 32 273C26.6667 281 21.1 293 41.5 277C61.8098 261.071 99.6633 275.207 116.28 284.378C116.429 284.46 116.589 284.5 116.759 284.5H601.425C602.393 284.5 602.796 285.739 602.013 286.309L596.444 290.359C595.621 290.957 596.112 292.258 597.124 292.164L787.354 274.514C787.451 274.505 787.546 274.482 787.636 274.445L823.079 260.17C823.347 260.062 823.555 259.844 823.65 259.571L849.537 185.329C849.763 184.679 849.281 184 848.592 184H98.1801C97.7697 184 97.4065 184.237 97.2549 184.618C88.9524 205.503 69.8815 247.247 58 252Z" fill="#353535"/>
<path d="M131.179 191.896L130.754 189.942L131.179 191.896C135.443 190.968 152.165 189.641 193.386 191.997C212.77 193.104 224.549 205.739 231.322 221.697C238.115 237.704 239.693 256.733 238.705 269.64C238.527 271.96 240.345 274 242.726 273.997L614.258 273.5C614.537 273.5 614.941 273.474 615.379 273.325C615.813 273.178 616.324 272.925 616.775 272.441C617.21 271.975 617.469 271.422 617.637 270.868C617.949 269.834 618.055 268.383 618.068 266.394C618.094 262.33 617.714 255.04 616.997 241.891C616.163 226.593 622.437 215.383 630.608 207.517C638.78 199.65 648.82 195.17 655.379 193.468C664.341 192.322 690.714 190.716 724.838 193.493C740.553 194.773 750.339 204.752 756.261 217.325C762.207 229.95 764.111 244.947 764.039 255.47C764.024 257.623 765.707 259.496 767.96 259.545C783.066 259.872 814.403 260.265 833.58 259.498C846.332 258.988 854.267 256.421 860.754 251.606C866.104 247.635 870.389 242.164 875.587 235.529C876.545 234.306 877.534 233.044 878.566 231.744C882.379 226.943 883.506 220.332 883.217 213.185C882.926 206 881.19 197.949 878.924 189.955C876.662 181.975 873.84 173.945 871.319 166.77L871.293 166.696C868.747 159.451 866.541 153.162 865.446 148.539C864.579 144.88 863.266 142.185 861.116 141.047C858.714 139.777 856.335 140.906 854.668 142.191C852.932 143.531 851.268 145.544 849.823 147.537C848.365 149.549 847.028 151.687 845.973 153.373L845.96 153.394L845.96 153.395L845.865 153.546C843.501 153.555 838.405 153.128 833.218 151.133C831.545 150.49 822.342 147.706 808.677 143.624C801.251 141.406 792.463 138.792 782.767 135.908C774.529 133.458 765.636 130.813 756.365 128.049C715.998 116.018 668.453 101.744 636.5 91.5398V81.3955C636.5 79.3208 634.927 77.5211 632.756 77.4027C621.19 76.7723 606.689 75.8987 590.799 74.9414C537.546 71.7332 468.692 67.5851 442.43 68.5012C426.478 69.0577 417.124 69.9245 411.605 70.9887C408.854 71.5192 406.918 72.1231 405.559 72.8426C404.137 73.5957 403.251 74.53 402.799 75.6902C402.395 76.7288 402.63 77.7145 402.901 78.3466L404.74 77.5588L402.901 78.3466L406.542 86.8416L328.844 144.993L328.843 144.993L328.839 144.995C328.835 144.996 328.831 144.997 328.826 144.998C328.822 144.999 328.819 144.999 328.819 144.999C79.9767 144.543 33.7873 161.651 17.4603 167.698C17.0603 167.846 16.6782 167.988 16.3115 168.122C12.5562 169.499 9.61199 170.701 7.49218 171.887C5.44612 173.032 3.72078 174.399 3.09756 176.32C2.43444 178.365 3.22837 180.308 4.36975 182.012C5.52407 183.734 7.34508 185.673 9.58579 187.914C13.7304 192.059 17.7377 200.172 20.4549 209.497C23.1582 218.774 24.4715 228.864 23.5145 236.759C22.5961 244.337 27.4161 249.841 33.1057 253.504C38.828 257.187 45.9373 259.378 50.9312 260.337C51.8762 260.518 52.7957 260.33 53.5522 259.936C65.1698 253.882 77.6663 259.243 86.2009 263.027C89.0368 264.284 91.9386 261.971 91.7784 259.101C90.2846 232.349 96.5135 215.502 104.703 205.421C112.911 195.316 123.201 191.852 130.196 191.993C130.537 192 130.857 191.966 131.179 191.896Z" fill="#FBB348" stroke="#1E1E1E" stroke-width="4"/>
<path d="M393 134V145.5H387.217C387.195 147.194 387.088 146.556 387 145.5H387.217C387.236 143.986 387.189 140.608 387 134C386.6 120 394.5 124.5 398.5 128.5L410.5 145.5H405C404.333 144 402.1 139.6 398.5 134C394.9 128.4 393.333 131.667 393 134Z" fill="#1E1E1E" stroke="#1E1E1E"/>
<path fill-rule="evenodd" clip-rule="evenodd" d="M87.2269 261.383C78.7862 257.641 65.1503 251.596 52.4025 258.457C52.2008 258.565 51.9719 258.608 51.7465 258.567C42.1499 256.803 24.0077 250.172 25.5887 237.129C26.7531 227.522 24.6973 215.034 21 204.5H103.068C94.401 215.3 88.1188 233.116 89.97 260.973C90.0195 261.718 89.2748 262.285 88.5908 261.985C88.1531 261.794 87.6981 261.592 87.2269 261.383ZM223.141 204.5C238.981 222.528 242.31 253.15 240.695 271.041C240.641 271.633 241.106 272.128 241.7 272.127L614.466 271.629C614.548 271.629 614.63 271.619 614.708 271.597C616.588 271.057 616.558 269.07 615.089 242.128C614.155 225.003 621.781 212.736 631.165 204.5L223.141 204.5ZM750.433 204.5C763.034 219.029 766.389 242.367 766.114 256.635C766.103 257.191 766.531 257.639 767.086 257.651C781.767 257.982 814.044 258.41 833.589 257.628C856.633 256.707 862.684 248.987 874.063 234.471C875.029 233.239 876.033 231.958 877.089 230.628C881.838 224.648 882.132 215.14 880.321 204.5L750.433 204.5Z" fill="#F49C17"/>
<circle cx="163" cy="254.5" r="63" fill="#1E1E1E" stroke="#1E1E1E" stroke-width="4"/>
<mask id="path-7-outside-1_12_66" maskUnits="userSpaceOnUse" x="116" y="208.5" width="94" height="94" fill="black">
<rect fill="white" x="116" y="208.5" width="94" height="94"/>
<path d="M206 255.5C206 279.248 186.748 298.5 163 298.5C139.252 298.5 120 279.248 120 255.5C120 231.752 139.252 212.5 163 212.5C186.748 212.5 206 231.752 206 255.5ZM124.239 255.5C124.239 276.907 141.593 294.261 163 294.261C184.407 294.261 201.761 276.907 201.761 255.5C201.761 234.093 184.407 216.739 163 216.739C141.593 216.739 124.239 234.093 124.239 255.5Z"/>
</mask>
<path d="M206 255.5C206 279.248 186.748 298.5 163 298.5C139.252 298.5 120 279.248 120 255.5C120 231.752 139.252 212.5 163 212.5C186.748 212.5 206 231.752 206 255.5ZM124.239 255.5C124.239 276.907 141.593 294.261 163 294.261C184.407 294.261 201.761 276.907 201.761 255.5C201.761 234.093 184.407 216.739 163 216.739C141.593 216.739 124.239 234.093 124.239 255.5Z" fill="#F3CE6F"/>
<path d="M206 255.5C206 279.248 186.748 298.5 163 298.5C139.252 298.5 120 279.248 120 255.5C120 231.752 139.252 212.5 163 212.5C186.748 212.5 206 231.752 206 255.5ZM124.239 255.5C124.239 276.907 141.593 294.261 163 294.261C184.407 294.261 201.761 276.907 201.761 255.5C201.761 234.093 184.407 216.739 163 216.739C141.593 216.739 124.239 234.093 124.239 255.5Z" stroke="#1E1E1E" stroke-width="8" mask="url(#path-7-outside-1_12_66)"/>
<circle cx="163" cy="254.5" r="17" fill="#F3CE6F" stroke="#1E1E1E" stroke-width="4"/>
<circle cx="163" cy="243.5" r="2" fill="#1E1E1E"/>
<circle cx="163" cy="265.5" r="2" fill="#1E1E1E"/>
<circle cx="174" cy="255.5" r="2" fill="#1E1E1E"/>
<circle cx="152" cy="255.5" r="2" fill="#1E1E1E"/>
<path d="M155.022 221.511L158.309 236.671C158.48 237.459 159.238 237.96 160.02 237.843C162.984 237.4 164.6 237.494 166.543 237.831C167.28 237.959 168.014 237.536 168.248 236.811L173.139 221.695C173.411 220.854 172.897 219.962 172.036 219.771C168.256 218.935 165.716 218.504 163.389 218.5C161.052 218.496 158.957 218.923 156.067 219.757C155.311 219.976 154.856 220.744 155.022 221.511Z" fill="#F3CE6F" stroke="#1E1E1E"/>
<path d="M154.707 288.489L157.994 273.329C158.165 272.541 158.923 272.04 159.705 272.157C162.669 272.6 164.286 272.506 166.229 272.169C166.965 272.041 167.7 272.464 167.934 273.189L172.825 288.305C173.097 289.146 172.583 290.038 171.722 290.229C167.942 291.065 165.402 291.496 163.075 291.5C160.738 291.504 158.643 291.077 155.752 290.243C154.997 290.024 154.541 289.256 154.707 288.489Z" fill="#F3CE6F" stroke="#1E1E1E"/>
<path d="M196.989 247.207L181.829 250.494C181.041 250.665 180.54 251.423 180.657 252.205C181.1 255.169 181.006 256.786 180.669 258.729C180.541 259.465 180.964 260.2 181.689 260.434L196.805 265.325C197.646 265.597 198.538 265.083 198.729 264.222C199.565 260.442 199.996 257.902 200 255.575C200.004 253.238 199.577 251.143 198.743 248.252C198.524 247.497 197.756 247.041 196.989 247.207Z" fill="#F3CE6F" stroke="#1E1E1E"/>
<path d="M129.511 247.207L144.671 250.494C145.459 250.665 145.96 251.423 145.843 252.205C145.4 255.169 145.494 256.786 145.831 258.729C145.959 259.465 145.536 260.2 144.811 260.434L129.695 265.325C128.854 265.597 127.962 265.083 127.771 264.222C126.935 260.442 126.504 257.902 126.5 255.575C126.496 253.238 126.923 251.143 127.757 248.252C127.976 247.497 128.744 247.041 129.511 247.207Z" fill="#F3CE6F" stroke="#1E1E1E"/>
<circle cx="692" cy="254.5" r="63" fill="#1E1E1E" stroke="#1E1E1E" stroke-width="4"/>
<mask id="path-18-outside-2_12_66" maskUnits="userSpaceOnUse" x="645" y="208.5" width="94" height="94" fill="black">
<rect fill="white" x="645" y="208.5" width="94" height="94"/>
<path d="M735 255.5C735 279.248 715.748 298.5 692 298.5C668.252 298.5 649 279.248 649 255.5C649 231.752 668.252 212.5 692 212.5C715.748 212.5 735 231.752 735 255.5ZM653.239 255.5C653.239 276.907 670.593 294.261 692 294.261C713.407 294.261 730.761 276.907 730.761 255.5C730.761 234.093 713.407 216.739 692 216.739C670.593 216.739 653.239 234.093 653.239 255.5Z"/>
</mask>
<path d="M735 255.5C735 279.248 715.748 298.5 692 298.5C668.252 298.5 649 279.248 649 255.5C649 231.752 668.252 212.5 692 212.5C715.748 212.5 735 231.752 735 255.5ZM653.239 255.5C653.239 276.907 670.593 294.261 692 294.261C713.407 294.261 730.761 276.907 730.761 255.5C730.761 234.093 713.407 216.739 692 216.739C670.593 216.739 653.239 234.093 653.239 255.5Z" fill="#F3CE6F"/>
<path d="M735 255.5C735 279.248 715.748 298.5 692 298.5C668.252 298.5 649 279.248 649 255.5C649 231.752 668.252 212.5 692 212.5C715.748 212.5 735 231.752 735 255.5ZM653.239 255.5C653.239 276.907 670.593 294.261 692 294.261C713.407 294.261 730.761 276.907 730.761 255.5C730.761 234.093 713.407 216.739 692 216.739C670.593 216.739 653.239 234.093 653.239 255.5Z" stroke="#1E1E1E" stroke-width="8" mask="url(#path-18-outside-2_12_66)"/>
<circle cx="692" cy="254.5" r="17" fill="#F3CE6F" stroke="#1E1E1E" stroke-width="4"/>
<circle cx="692" cy="243.5" r="2" fill="#1E1E1E"/>
<circle cx="692" cy="265.5" r="2" fill="#1E1E1E"/>
<circle cx="703" cy="255.5" r="2" fill="#1E1E1E"/>
<circle cx="681" cy="255.5" r="2" fill="#1E1E1E"/>
<path d="M684.022 221.511L687.309 236.671C687.48 237.459 688.238 237.96 689.02 237.843C691.984 237.4 693.6 237.494 695.543 237.831C696.28 237.959 697.014 237.536 697.248 236.811L702.139 221.695C702.411 220.854 701.897 219.962 701.036 219.771C697.256 218.935 694.716 218.504 692.389 218.5C690.052 218.496 687.957 218.923 685.067 219.757C684.311 219.976 683.856 220.744 684.022 221.511Z" fill="#F3CE6F" stroke="#1E1E1E"/>
<path d="M683.707 288.489L686.994 273.329C687.165 272.541 687.923 272.04 688.705 272.157C691.669 272.6 693.286 272.506 695.229 272.169C695.965 272.041 696.7 272.464 696.934 273.189L701.825 288.305C702.097 289.146 701.583 290.038 700.722 290.229C696.942 291.065 694.402 291.496 692.075 291.5C689.738 291.504 687.643 291.077 684.752 290.243C683.997 290.024 683.541 289.256 683.707 288.489Z" fill="#F3CE6F" stroke="#1E1E1E"/>
<path d="M725.989 247.207L710.829 250.494C710.041 250.665 709.54 251.423 709.657 252.205C710.1 255.169 710.006 256.786 709.669 258.729C709.541 259.465 709.964 260.2 710.689 260.434L725.805 265.325C726.646 265.597 727.538 265.083 727.729 264.222C728.565 260.442 728.996 257.902 729 255.575C729.004 253.238 728.577 251.143 727.743 248.252C727.524 247.497 726.756 247.041 725.989 247.207Z" fill="#F3CE6F" stroke="#1E1E1E"/>
<path d="M658.511 247.207L673.671 250.494C674.459 250.665 674.96 251.423 674.843 252.205C674.4 255.169 674.494 256.786 674.831 258.729C674.959 259.465 674.536 260.2 673.811 260.434L658.695 265.325C657.854 265.597 656.962 265.083 656.771 264.222C655.935 260.442 655.504 257.902 655.5 255.575C655.496 253.238 655.923 251.143 656.757 248.252C656.976 247.497 657.744 247.041 658.511 247.207Z" fill="#F3CE6F" stroke="#1E1E1E"/>
<path d="M328 145H328.665L329.198 144.601L404.698 88.1013L405.854 87.2366L405.397 85.8675L402.897 78.3675L402.036 75.7828L399.828 77.3794L311.328 141.379L306.321 145H312.5H328Z" fill="#ACDEC3" stroke="#1E1E1E" stroke-width="4"/>
<rect x="5" y="221.5" width="72" height="9" rx="2" fill="#1E1E1E"/>
<rect x="62" y="240.5" width="16" height="10" rx="1" fill="#FF290C" stroke="#1E1E1E" stroke-width="2"/>
<path d="M52.5 215.5C53.8715 215.5 54.9837 215.322 55.8282 214.848C56.7372 214.337 57.2142 213.555 57.4382 212.65C57.6477 211.803 57.6469 210.806 57.6122 209.774C57.6014 209.45 57.587 209.12 57.5721 208.779C57.5373 207.982 57.5 207.129 57.5 206.177C57.5 203.186 56.3588 199.863 54.5344 197.279C52.722 194.712 50.0829 192.677 47 192.677C46.0452 192.677 45.2887 193.297 44.7518 193.965C44.1918 194.661 43.7088 195.604 43.3128 196.668C42.5176 198.805 42 201.631 42 204.5C42 210.526 46.6533 215.5 52.5 215.5Z" fill="#FFE600" stroke="#1E1E1E" stroke-width="2"/>
<path d="M57.5059 223.347C57.4212 224.448 58.2453 225.409 59.3466 225.494C60.4479 225.579 61.4094 224.755 61.4941 223.653L57.5059 223.347ZM4.26651 181.482C13.9436 180.181 28.1611 180.797 39.4649 186.674C45.0802 189.594 49.9398 193.791 53.2204 199.674C56.5001 205.556 58.2813 213.266 57.5059 223.347L61.4941 223.653C62.3187 212.934 60.4416 204.411 56.714 197.726C52.9873 191.043 47.4907 186.339 41.3101 183.126C29.0223 176.736 13.8897 176.152 3.73349 177.518L4.26651 181.482Z" fill="#1E1E1E"/>
<path d="M519.5 122L505.5 146.5H536.5C536 143.833 534.6 135.2 533 122C531.4 108.8 523.333 116.5 519.5 122Z" fill="#1E1E1E" stroke="#1E1E1E"/>
<path d="M139.024 131.518C137.778 131.496 136.593 132.055 135.819 133.032L137.337 134.236L135.819 133.032L127.651 143.331C125.522 146.015 127.532 149.958 130.954 149.813L252.186 144.664C255.443 144.525 257.176 140.759 255.162 138.196L252.66 135.012C251.917 134.066 250.788 133.505 249.586 133.483L139.024 131.518Z" fill="#1E1E1E" stroke="#1E1E1E" stroke-width="4"/>
<path d="M425.77 90.2883L358.248 139.774L359.43 141.387L358.248 139.774C355.129 142.059 356.746 147 360.612 147H562.263C562.549 147 562.846 146.975 563.183 146.892C564.716 146.516 574.455 144.083 583.236 140.809C587.598 139.183 591.883 137.293 594.805 135.27C596.245 134.273 597.556 133.11 598.299 131.76C598.685 131.059 598.946 130.255 598.943 129.378C598.939 128.487 598.662 127.65 598.173 126.904C593.68 120.047 586.034 112.329 579.175 106.048C572.282 99.7348 566.04 94.7425 564.245 93.3269C563.55 92.7784 562.724 92.5045 561.885 92.4858L428.223 89.5156C427.343 89.496 426.48 89.7676 425.77 90.2883Z" fill="#8AF1F8" fill-opacity="0.7" stroke="#1E1E1E" stroke-width="4"/>
<path d="M549 96.5V143C549 145.209 550.791 147 553 147H563.205C563.568 147 563.939 146.957 564.343 146.834C565.979 146.335 575.06 143.531 583.391 140.307C587.539 138.702 591.597 136.957 594.464 135.308C595.871 134.499 597.152 133.624 597.998 132.701C598.421 132.24 598.859 131.635 599.062 130.895C599.288 130.066 599.185 129.172 598.664 128.391C587.929 112.288 567.242 96.0138 563.744 93.3162C563.034 92.7689 562.187 92.5 561.331 92.5H553C550.791 92.5 549 94.2909 549 96.5Z" stroke="#1E1E1E" stroke-width="4"/>
<path d="M275.314 190.969L588.5 187.5L239.909 183.533C238.506 183.517 237.524 184.913 238.011 186.228L263.016 253.695C263.307 254.479 264.055 255 264.892 255H613.434C614.564 255 615.47 254.065 615.433 252.936L615.062 241.436C615.028 240.357 614.143 239.5 613.063 239.5H291.405C290.562 239.5 289.809 238.972 289.523 238.179L273.455 193.648C272.988 192.353 273.938 190.984 275.314 190.969Z" fill="#1E1E1E"/>
<path d="M856.5 232H764.525C763.236 232 762.283 233.203 762.578 234.458L763.643 238.983C763.853 239.875 764.642 240.51 765.558 240.525L856.468 241.968C857.585 241.985 858.5 241.085 858.5 239.968V234C858.5 232.895 857.605 232 856.5 232Z" fill="#1E1E1E"/>
<path d="M328.5 145.5C313.5 157.5 290.7 196.3 319.5 255.5" stroke="#1E1E1E" stroke-width="4" stroke-linejoin="round"/>
<path d="M555.5 148C563.5 159.5 567.3 176.5 562.5 238.5" stroke="#1E1E1E" stroke-width="4" stroke-linejoin="round"/>
<rect x="524" y="160.5" width="28" height="3" rx="1.5" fill="#1E1E1E"/>
<circle cx="616" cy="113.5" r="10" fill="#1E1E1E"/>
<circle cx="616" cy="113.5" r="8" fill="#EBCEA2"/>
<path d="M604.5 149.5H561.408C559.689 149.5 558.562 151.69 559.308 153.238C561.418 157.614 563.72 165.179 563.976 175.996C564.003 177.1 564.895 178 566 178H604.5C605.605 178 606.5 177.105 606.5 176V151.5C606.5 150.395 605.605 149.5 604.5 149.5Z" fill="url(#paint0_linear_12_66)" stroke="#1E1E1E" stroke-width="4" stroke-linejoin="round"/>
<path d="M604.759 149.016C604.215 149.977 604.554 151.198 605.516 151.741C606.477 152.285 607.698 151.946 608.241 150.984L604.759 149.016ZM641.5 139L641.439 140.999L641.5 139ZM608.241 150.984C609.152 149.372 611.009 146.749 615.745 144.581C620.551 142.381 628.424 140.605 641.439 140.999L641.561 137.001C628.176 136.595 619.633 138.402 614.08 140.944C608.458 143.518 606.015 146.794 604.759 149.016L608.241 150.984ZM641.439 140.999C667.768 141.797 786.956 151.656 843.329 156.493L843.671 152.507C787.377 147.677 668.032 137.803 641.561 137.001L641.439 140.999Z" fill="#1E1E1E"/>
<path d="M863.55 247.443C863.794 248.52 864.866 249.195 865.943 248.95C867.02 248.706 867.695 247.634 867.45 246.557L863.55 247.443ZM842.55 154.943L863.55 247.443L867.45 246.557L846.45 154.057L842.55 154.943Z" fill="#1E1E1E"/>
<rect width="3.00014" height="34.8755" rx="1" transform="matrix(0.999822 0.0188597 -0.0139554 0.999903 641.487 105.5)" fill="#1E1E1E"/>
<rect width="3.00014" height="32.5505" rx="1" transform="matrix(0.999822 0.0188597 -0.0139554 0.999903 649.453 107.976)" fill="#1E1E1E"/>
<rect width="3.00014" height="30.2254" rx="1" transform="matrix(0.999822 0.0188597 -0.0139554 0.999903 656.42 110.433)" fill="#1E1E1E"/>
<rect width="3.00014" height="27.9004" rx="1" transform="matrix(0.999822 0.0188597 -0.0139554 0.999903 664.386 112.908)" fill="#1E1E1E"/>
<rect width="3.00014" height="25.5754" rx="1" transform="matrix(0.999822 0.0188597 -0.0139554 0.999903 671.353 115.365)" fill="#1E1E1E"/>
<rect width="3.00014" height="23.2503" rx="1" transform="matrix(0.999822 0.0188597 -0.0139554 0.999903 676.32 117.784)" fill="#1E1E1E"/>
<rect width="3.00014" height="20.9253" rx="1" transform="matrix(0.999822 0.0188597 -0.0139554 0.999903 680.287 120.184)" fill="#1E1E1E"/>
<rect width="3.00014" height="18.6003" rx="1" transform="matrix(0.999822 0.0188597 -0.0139554 0.999903 684.254 122.604)" fill="#1E1E1E"/>
<path d="M483.5 145L419 98L423 94L494 145H483.5Z" fill="white" fill-opacity="0.5"/>
<path d="M453 92H438L508.5 145H523L453 92Z" fill="white" fill-opacity="0.5"/>
<path d="M300 2V146" stroke="#1E1E1E" stroke-width="4" stroke-linecap="round"/>
<path d="M633.653 77.6096C632.928 77.3592 632.124 77.5454 631.583 78.0887C631.042 78.6321 630.859 79.4369 631.112 80.1607L634.275 89.1978C634.699 90.4075 635.676 91.3411 636.904 91.7085L826.427 148.416C827.469 148.728 828.57 148.149 828.904 147.113C829.237 146.077 828.682 144.965 827.653 144.61L633.653 77.6096Z" fill="#ACDEC3" stroke="#1E1E1E" stroke-width="4" stroke-linecap="round" stroke-linejoin="round"/>
<path d="M816.843 135.868L818.043 137.468L816.843 135.868C814.659 137.506 815.619 140.971 818.334 141.252L828.5 142.304V149.708C828.5 151.1 829.458 152.309 830.813 152.628L837.313 154.158C839.196 154.601 841 153.172 841 151.237V142.5H844.667C845.316 142.5 845.947 142.289 846.467 141.9L861.8 130.4C864.106 128.67 862.883 125 860 125H832.333C831.684 125 831.053 125.211 830.533 125.6L831.733 127.2L830.533 125.6L816.843 135.868Z" fill="#1E1E1E" stroke="#1E1E1E" stroke-width="4" stroke-linejoin="round"/>
<defs>
<linearGradient id="paint0_linear_12_66" x1="607" y1="161.5" x2="563" y2="161.5" gradientUnits="userSpaceOnUse">
<stop offset="0.0994245" stop-color="#F49C17"/>
<stop offset="1" stop-color="#F49C17" stop-opacity="0"/>
</linearGradient>
</defs>
</svg>
