<svg width="112" height="32" viewBox="0 0 112 32" fill="none" xmlns="http://www.w3.org/2000/svg">
<path d="M13.9075 31.5H3.90411L13.9075 16.246H23.9109L13.9075 31.5Z" fill="#FF8E42"/>
<path d="M10.2474 0.5H20.4948L10.2474 16.2461H0L10.2474 0.5Z" fill="#FF6600"/>
<path d="M44.3182 13.7701C44.3182 14.7055 44.0946 15.5825 43.6473 16.401C43.2166 17.2196 42.5292 17.8794 41.5849 18.3805C40.6572 18.8817 39.4811 19.1322 38.0564 19.1322H35.1492V25.8475H31.6704V8.35777H38.0564C39.3983 8.35777 40.5413 8.59164 41.4855 9.05937C42.4298 9.52709 43.1338 10.1702 43.5976 10.9887C44.078 11.8073 44.3182 12.7344 44.3182 13.7701ZM37.9074 16.3008C38.8682 16.3008 39.5805 16.0836 40.0443 15.6493C40.5082 15.1983 40.7401 14.5719 40.7401 13.7701C40.7401 12.0662 39.7958 11.2143 37.9074 11.2143H35.1492V16.3008H37.9074Z" fill="white"/>
<path d="M49.273 14.1209C49.7202 13.3859 50.3 12.8095 51.0123 12.3919C51.7412 11.9743 52.5695 11.7655 53.4972 11.7655V15.4489H52.5778C51.4845 15.4489 50.6562 15.7078 50.093 16.2256C49.5463 16.7435 49.273 17.6455 49.273 18.9318V25.8475H45.7942V11.966H49.273V14.1209Z" fill="white"/>
<path d="M60.9591 26.073C59.6338 26.073 58.4411 25.7807 57.3809 25.196C56.3207 24.5946 55.4841 23.751 54.8712 22.6653C54.2749 21.5795 53.9767 20.3266 53.9767 18.9067C53.9767 17.4868 54.2831 16.234 54.8961 15.1482C55.5256 14.0624 56.3787 13.2272 57.4555 12.6425C58.5322 12.0411 59.7332 11.7405 61.0585 11.7405C62.3837 11.7405 63.5847 12.0411 64.6615 12.6425C65.7383 13.2272 66.5831 14.0624 67.196 15.1482C67.8255 16.234 68.1403 17.4868 68.1403 18.9067C68.1403 20.3266 67.8172 21.5795 67.1712 22.6653C66.5417 23.751 65.6803 24.5946 64.5869 25.196C63.5102 25.7807 62.3009 26.073 60.9591 26.073ZM60.9591 23.016C61.5886 23.016 62.1766 22.8657 62.7233 22.565C63.2865 22.2476 63.7338 21.7799 64.0651 21.1618C64.3964 20.5438 64.5621 19.7921 64.5621 18.9067C64.5621 17.5871 64.2142 16.5764 63.5185 15.8748C62.8393 15.1565 62.0027 14.7974 61.0088 14.7974C60.0148 14.7974 59.1783 15.1565 58.4991 15.8748C57.8365 16.5764 57.5051 17.5871 57.5051 18.9067C57.5051 20.2264 57.8282 21.2454 58.4742 21.9637C59.1369 22.6653 59.9651 23.016 60.9591 23.016Z" fill="white"/>
<path d="M73.1769 23.0662H76.9126V25.8475H69.6981V6.20288H73.1769V23.0662Z" fill="white"/>
<path d="M79.6113 10.3122C78.9983 10.3122 78.4848 10.1201 78.0707 9.7359C77.6731 9.33499 77.4743 8.84221 77.4743 8.25755C77.4743 7.67288 77.6731 7.18845 78.0707 6.80425C78.4848 6.40334 78.9983 6.20288 79.6113 6.20288C80.2242 6.20288 80.7295 6.40334 81.127 6.80425C81.5412 7.18845 81.7482 7.67288 81.7482 8.25755C81.7482 8.84221 81.5412 9.33499 81.127 9.7359C80.7295 10.1201 80.2242 10.3122 79.6113 10.3122ZM81.3258 11.966V25.8475H77.847V11.966H81.3258Z" fill="white"/>
<path d="M91.3974 11.7655C93.0374 11.7655 94.3626 12.2917 95.3731 13.3441C96.3836 14.3798 96.8889 15.8331 96.8889 17.704V25.8475H93.4101V18.1801C93.4101 17.0776 93.1367 16.234 92.5901 15.6493C92.0434 15.048 91.298 14.7473 90.3537 14.7473C89.3929 14.7473 88.6309 15.048 88.0677 15.6493C87.521 16.234 87.2477 17.0776 87.2477 18.1801V25.8475H83.7689V11.966H87.2477V13.6949C87.7115 13.0935 88.2996 12.6258 89.0119 12.2917C89.7408 11.9409 90.536 11.7655 91.3974 11.7655Z" fill="white"/>
<path d="M112 18.606C112 19.1072 111.967 19.5582 111.901 19.9591H101.837C101.92 20.9614 102.268 21.7465 102.881 22.3145C103.494 22.8824 104.247 23.1664 105.142 23.1664C106.434 23.1664 107.353 22.6068 107.9 21.4876H111.652C111.255 22.8239 110.493 23.9264 109.366 24.7951C108.24 25.647 106.856 26.073 105.216 26.073C103.891 26.073 102.698 25.7807 101.638 25.196C100.595 24.5946 99.7746 23.751 99.1782 22.6653C98.5984 21.5795 98.3085 20.3266 98.3085 18.9067C98.3085 17.4701 98.5984 16.2089 99.1782 15.1231C99.758 14.0373 100.57 13.2021 101.613 12.6174C102.657 12.0328 103.858 11.7405 105.216 11.7405C106.525 11.7405 107.693 12.0244 108.72 12.5924C109.764 13.1603 110.567 13.9705 111.13 15.0229C111.71 16.0586 112 17.253 112 18.606ZM108.397 17.6038C108.38 16.7017 108.057 15.9834 107.428 15.4489C106.798 14.8976 106.028 14.622 105.117 14.622C104.256 14.622 103.527 14.8893 102.93 15.4238C102.351 15.9417 101.994 16.6683 101.862 17.6038H108.397Z" fill="white"/>
</svg>
